<?xml version="1.0" encoding="iso-8859-1"?>
<!-- Uploaded to: SVG Repo, www.svgrepo.com, Generator: SVG Repo Mixer Tools -->
<svg fill="#000000" height="800px" width="800px" version="1.1" id="Capa_1" xmlns="http://www.w3.org/2000/svg" xmlns:xlink="http://www.w3.org/1999/xlink" 
	 viewBox="0 0 39.794 39.794" xml:space="preserve">
<g>
	<path d="M32.901,39.794c-0.683,0-1.365-0.198-1.933-0.604L10.182,24.344l-6.001,6c-0.275,0.275-0.685,0.367-1.049,0.232
		c-0.366-0.133-0.621-0.466-0.654-0.854L0.004,1.086c-0.025-0.294,0.08-0.585,0.289-0.793c0.209-0.209,0.502-0.314,0.793-0.289
		l28.638,2.475c0.388,0.033,0.72,0.288,0.854,0.654c0.133,0.365,0.042,0.774-0.232,1.049l-6,6l14.847,20.786
		c0.926,1.297,0.769,3.197-0.359,4.325l-3.539,3.539C34.658,39.467,33.779,39.794,32.901,39.794z M10.075,22.038
		c0.202,0,0.406,0.061,0.581,0.186l21.475,15.339c0.499,0.357,1.315,0.288,1.748-0.146l3.539-3.539
		c0.433-0.434,0.501-1.25,0.146-1.749L22.224,10.655c-0.284-0.398-0.239-0.942,0.107-1.288l5.081-5.081L2.098,2.098l2.188,25.314
		l5.081-5.081C9.561,22.137,9.817,22.038,10.075,22.038z"/>
</g>
</svg>